<svg xmlns="http://www.w3.org/2000/svg" width="100" height="100" viewBox="0 0 100 100" role="img" aria-labelledby="title desc">
<title id="title">F：手前面 時計回り</title><desc id="desc"></desc>
<defs><marker id="arrow" viewBox="0 0 10 10" refX="8" refY="5" markerWidth="5" markerHeight="5" orient="auto-start-reverse"><path d="M1 1L9 5L1 9Z" fill="#111827" stroke="white" stroke-width=".6"/></marker></defs>
<g font-family="Yu Gothic, Meiryo, sans-serif" fill="#182230"><polygon points="39.21,6.98 87.77,20.57 60.79,45.02 12.23,31.43" fill="#262c35" stroke="#303641" stroke-width="0.85" stroke-linejoin="round"/><polygon points="39.50,7.49 54.39,11.65 46.11,19.15 31.22,14.99" fill="#ffffff" stroke="#303641" stroke-width="0.85" stroke-linejoin="round"/><polygon points="30.50,15.64 45.40,19.81 37.12,27.30 22.23,23.14" fill="#ffffff" stroke="#303641" stroke-width="0.85" stroke-linejoin="round"/><polygon points="21.51,23.79 36.40,27.96 28.13,35.46 13.24,31.29" fill="#c8cdd4" stroke="#303641" stroke-width="0.85" stroke-linejoin="round"/><polygon points="55.68,12.02 70.58,16.18 62.30,23.68 47.41,19.52" fill="#ffffff" stroke="#303641" stroke-width="0.85" stroke-linejoin="round"/><polygon points="46.69,20.17 61.58,24.33 53.31,31.83 38.42,27.67" fill="#ffffff" stroke="#303641" stroke-width="0.85" stroke-linejoin="round"/><polygon points="37.70,28.32 52.59,32.48 44.32,39.98 29.42,35.82" fill="#c8cdd4" stroke="#303641" stroke-width="0.85" stroke-linejoin="round"/><polygon points="71.87,16.55 86.76,20.71 78.49,28.21 63.60,24.04" fill="#ffffff" stroke="#303641" stroke-width="0.85" stroke-linejoin="round"/><polygon points="62.88,24.70 77.77,28.86 69.50,36.36 54.60,32.19" fill="#ffffff" stroke="#303641" stroke-width="0.85" stroke-linejoin="round"/><polygon points="53.89,32.85 68.78,37.01 60.50,44.51 45.61,40.35" fill="#c8cdd4" stroke="#303641" stroke-width="0.85" stroke-linejoin="round"/><polygon points="87.77,68.57 60.79,93.02 60.79,45.02 87.77,20.57" fill="#262c35" stroke="#303641" stroke-width="0.85" stroke-linejoin="round"/><polygon points="87.41,68.25 79.14,75.75 79.14,61.03 87.41,53.53" fill="#ffffff" stroke="#303641" stroke-width="0.85" stroke-linejoin="round"/><polygon points="87.41,52.25 79.14,59.75 79.14,45.03 87.41,37.53" fill="#ffffff" stroke="#303641" stroke-width="0.85" stroke-linejoin="round"/><polygon points="87.41,36.25 79.14,43.75 79.14,29.03 87.41,21.53" fill="#ffffff" stroke="#303641" stroke-width="0.85" stroke-linejoin="round"/><polygon points="78.42,76.40 70.15,83.90 70.15,69.18 78.42,61.68" fill="#ffffff" stroke="#303641" stroke-width="0.85" stroke-linejoin="round"/><polygon points="78.42,60.40 70.15,67.90 70.15,53.18 78.42,45.68" fill="#ffffff" stroke="#303641" stroke-width="0.85" stroke-linejoin="round"/><polygon points="78.42,44.40 70.15,51.90 70.15,37.18 78.42,29.68" fill="#ffffff" stroke="#303641" stroke-width="0.85" stroke-linejoin="round"/><polygon points="69.43,84.55 61.15,92.05 61.15,77.33 69.43,69.83" fill="#c8cdd4" stroke="#303641" stroke-width="0.85" stroke-linejoin="round"/><polygon points="69.43,68.55 61.15,76.05 61.15,61.33 69.43,53.83" fill="#c8cdd4" stroke="#303641" stroke-width="0.85" stroke-linejoin="round"/><polygon points="69.43,52.55 61.15,60.05 61.15,45.33 69.43,37.83" fill="#c8cdd4" stroke="#303641" stroke-width="0.85" stroke-linejoin="round"/><polygon points="12.23,79.43 60.79,93.02 60.79,45.02 12.23,31.43" fill="#262c35" stroke="#303641" stroke-width="0.85" stroke-linejoin="round"/><polygon points="12.88,78.97 27.77,83.14 27.77,68.42 12.88,64.25" fill="#c8cdd4" stroke="#303641" stroke-width="0.85" stroke-linejoin="round"/><polygon points="12.88,62.97 27.77,67.14 27.77,52.42 12.88,48.26" fill="#c8cdd4" stroke="#303641" stroke-width="0.85" stroke-linejoin="round"/><polygon points="12.88,46.98 27.77,51.14 27.77,36.42 12.88,32.26" fill="#c8cdd4" stroke="#303641" stroke-width="0.85" stroke-linejoin="round"/><polygon points="29.06,83.50 43.96,87.67 43.96,72.95 29.06,68.78" fill="#c8cdd4" stroke="#303641" stroke-width="0.85" stroke-linejoin="round"/><polygon points="29.06,67.50 43.96,71.67 43.96,56.95 29.06,52.78" fill="#c8cdd4" stroke="#303641" stroke-width="0.85" stroke-linejoin="round"/><polygon points="29.06,51.50 43.96,55.67 43.96,40.95 29.06,36.78" fill="#c8cdd4" stroke="#303641" stroke-width="0.85" stroke-linejoin="round"/><polygon points="45.25,88.03 60.14,92.20 60.14,77.48 45.25,73.31" fill="#c8cdd4" stroke="#303641" stroke-width="0.85" stroke-linejoin="round"/><polygon points="45.25,72.03 60.14,76.20 60.14,61.48 45.25,57.31" fill="#c8cdd4" stroke="#303641" stroke-width="0.85" stroke-linejoin="round"/><polygon points="45.25,56.03 60.14,60.20 60.14,45.48 45.25,41.31" fill="#c8cdd4" stroke="#303641" stroke-width="0.85" stroke-linejoin="round"/><path d="M22.63 48.06 L24.40 46.74 L26.43 45.76 L28.66 45.15 L31.06 44.92 L33.56 45.09 L36.11 45.64 L38.67 46.56 L41.16 47.83 L43.54 49.43 L45.75 51.32 L47.75 53.46 L49.49 55.80 L50.94 58.29 L52.06 60.88 L52.83 63.51 L53.23 66.12 L53.26 68.66 L52.90 71.06 L52.18 73.29 L51.10 75.28 L49.69 77.00 L47.99 78.41 L46.02 79.47 L43.83 80.17" fill="none" stroke="white" stroke-width="5.8" stroke-linecap="round" stroke-linejoin="round"/><path d="M22.63 48.06 L24.40 46.74 L26.43 45.76 L28.66 45.15 L31.06 44.92 L33.56 45.09 L36.11 45.64 L38.67 46.56 L41.16 47.83 L43.54 49.43 L45.75 51.32 L47.75 53.46 L49.49 55.80 L50.94 58.29 L52.06 60.88 L52.83 63.51 L53.23 66.12 L53.26 68.66 L52.90 71.06 L52.18 73.29 L51.10 75.28 L49.69 77.00 L47.99 78.41 L46.02 79.47 L43.83 80.17" fill="none" stroke="#111827" stroke-width="2.8" stroke-linecap="round" stroke-linejoin="round"/><polygon points="43.82717373747293,80.17039718322943 51.03300288637567,73.14714820025696 53.769270413192544,81.72111111256814" fill="#111827" stroke="white" stroke-width=".8"/></g></svg>